<svg xmlns="http://www.w3.org/2000/svg" width="698.56" height="179.408" viewBox="0 0 698.56 179.408">
  <g id="logo-lunnar-shop-white" transform="translate(-461.424 -376.497)">
    <text id="lunnar" transform="translate(461.424 499.497)" fill="#fff" font-size="104" font-family="Capitana-Semibold, Capitana" font-weight="600"><tspan x="0" y="0">lunnar</tspan></text>
    <path id="Subtração_1" data-name="Subtração 1" d="M-4237.568,205.395h-216.695a60.568,60.568,0,0,1-16.259-2.548c-.609-.173-1.225-.357-1.83-.546-1.222-.383-2.464-.8-3.69-1.251v.01c-2.086-.77-3.922-1.518-5.613-2.286-1.414-.638-2.791-1.3-4.094-1.981-1.841-.949-3.743-2.044-5.653-3.254a.031.031,0,0,1,0-.011c-1.244-.8-2.428-1.623-3.516-2.444v.008a44.54,44.54,0,0,1-4.053-3.444l-.157-.135-51.6-50.143a25.037,25.037,0,0,1-5.708-8.351,24.586,24.586,0,0,1-1.905-9.506,24.614,24.614,0,0,1,1.9-9.521,25.09,25.09,0,0,1,5.712-8.372l51.6-50.142c4.9-4.773,12.268-9.262,20.733-12.639s17.048-5.244,24.135-5.244h216.676a28.307,28.307,0,0,1,5,.442c.717.126,1.43.28,2.118.457a27.623,27.623,0,0,1,8.507,3.792c.2.134.4.269.585.4a26.544,26.544,0,0,1,3.614,3.08,25.024,25.024,0,0,1,2.253,2.632,24.517,24.517,0,0,1,3.119,5.571c.017.041.033.082.049.124a23.6,23.6,0,0,1,1.635,8.653v121.5a23.62,23.62,0,0,1-1.9,9.307,24.712,24.712,0,0,1-4.535,7.021l-.007.008-.01.01-.013.015,0,0-.006.005h0a27.348,27.348,0,0,1-17.354,8.622c-.61.065-1.227.112-1.832.14h0v-.006C-4236.778,205.387-4237.179,205.395-4237.568,205.395Zm-63.494-41.3v6.386h26.162v-6.386h-4.737c-1.664,0-2.473-.842-2.473-2.575V147.4a26.982,26.982,0,0,0,7.622.927,31,31,0,0,0,11.19-1.975,24.815,24.815,0,0,0,8.65-5.557,24.619,24.619,0,0,0,5.58-8.589,30.366,30.366,0,0,0,1.978-11.071c0-7.474-1.905-13.689-5.511-17.974a17.658,17.658,0,0,0-6.482-4.854,21.341,21.341,0,0,0-8.606-1.687c-7.644,0-11.837,3.529-14.008,6.49h-.412v-2.781a2.808,2.808,0,0,0-.631-2.035,2.58,2.58,0,0,0-1.944-.644h-16.376v6.18h3.708a2.246,2.246,0,0,1,2.576,2.575v55.1a2.283,2.283,0,0,1-2.576,2.575Zm-31.622-67.466c-7.67,0-14.1,2.458-18.59,7.107s-6.85,11.263-6.85,19.159c0,15.93,9.434,25.441,25.234,25.441,7.572,0,13.961-2.449,18.476-7.081,4.557-4.676,6.966-11.345,6.966-19.287a31.848,31.848,0,0,0-1.727-10.825,21.212,21.212,0,0,0-4.981-7.947,21.272,21.272,0,0,0-7.937-4.9A31.617,31.617,0,0,0-4332.684,96.625Zm-133.488,35.638v10.816c0,1.858.722,2.782,2.576,3.3,3.454,1.226,9.037,1.957,14.935,1.957a36.8,36.8,0,0,0,9.234-1.064,20.087,20.087,0,0,0,6.859-3.121,13.622,13.622,0,0,0,4.271-5.071,15.766,15.766,0,0,0,1.471-6.916,14.306,14.306,0,0,0-1.428-6.663,11.652,11.652,0,0,0-3.779-4.254c-3.135-2.213-7.242-3.336-11.589-4.525l-.4-.111a27.007,27.007,0,0,1-7.21-2.73,6.588,6.588,0,0,1-2.118-2.05,5.242,5.242,0,0,1-.766-2.842A4.714,4.714,0,0,1-4452,104.8c1.48-.982,3.78-1.48,6.837-1.48,4.184,0,6.8.622,8.24,1.956,1.282,1.085,1.854,2.642,1.854,5.048v1.441h6.8v-9.99c0-1.8-.674-2.663-2.576-3.3-2.994-1.109-8.375-1.854-13.39-1.854-7.065,0-12.454,1.3-16.017,3.85-3.451,2.474-5.2,6.135-5.2,10.879a15.374,15.374,0,0,0,1.376,6.782,12.082,12.082,0,0,0,3.684,4.445c3.173,2.416,7.483,3.666,11.626,4.738a30.566,30.566,0,0,1,7.6,2.665,5.547,5.547,0,0,1,3.116,5.06c0,2.331-.7,3.91-2.188,4.97-1.636,1.161-4.323,1.725-8.214,1.725-5.041,0-7.844-.739-9.374-2.472-1.024-1.117-1.442-2.668-1.442-5.356v-1.648Zm77.25,8.858v6.18h24.927v-6.18h-3.708a2.245,2.245,0,0,1-2.575-2.574V111.972a22.791,22.791,0,0,0-.873-6.656,12.008,12.008,0,0,0-2.707-4.8,11.468,11.468,0,0,0-4.678-2.91,21.111,21.111,0,0,0-6.781-.979,21.652,21.652,0,0,0-15.863,6.9h-.412V73.142c0-1.733-.809-2.575-2.472-2.575h-16.376v6.18h3.707c1.664,0,2.473.842,2.473,2.575v59.225c0,1.732-.809,2.574-2.473,2.574h-3.707v6.18h24.925v-6.18h-3.6c-1.664,0-2.473-.842-2.473-2.574V110.016a16.49,16.49,0,0,1,4.455-3.065,14.529,14.529,0,0,1,6.155-1.365c2.814,0,4.814.644,6.116,1.97,1.36,1.386,2.021,3.572,2.021,6.682v24.309c0,1.732-.809,2.574-2.473,2.574Zm-120.322-36.371a16.186,16.186,0,0,0-9.481,3.007,15.987,15.987,0,0,0-4.026,5.218,14.915,14.915,0,0,0-1.488,6.51,14.983,14.983,0,0,0,1.443,6.436,15.956,15.956,0,0,0,3.914,5.178,16.2,16.2,0,0,0,9.638,3.1,16.249,16.249,0,0,0,11.141-4.3,14.146,14.146,0,0,0,4.623-10.415C-4493.48,111.361-4500.552,104.751-4509.244,104.751Zm176.56,36.989a10.934,10.934,0,0,1-5.2-1.183,9.774,9.774,0,0,1-3.7-3.568,18.375,18.375,0,0,1-2.213-5.982,42.7,42.7,0,0,1-.735-8.425c0-12.96,3.807-19.261,11.638-19.261,7.971,0,11.846,6.233,11.846,19.055a44.5,44.5,0,0,1-.718,8.5,18.932,18.932,0,0,1-2.167,6.048,9.734,9.734,0,0,1-3.635,3.615A10.514,10.514,0,0,1-4332.684,141.74Zm55.517-.309a14.146,14.146,0,0,1-4.944-.721V109.4a11.417,11.417,0,0,1,9.167-4.224c8.019,0,12.257,5.948,12.257,17.2a30.273,30.273,0,0,1-1.011,8.235,15.775,15.775,0,0,1-3.058,5.966,12.836,12.836,0,0,1-5.144,3.629A19.885,19.885,0,0,1-4277.167,141.43Z" transform="translate(5370.195 350)" fill="#fff" stroke="rgba(0,0,0,0)" stroke-miterlimit="10" stroke-width="1"/>
  </g>
</svg>
